<svg version="1.1" id="Layer_1" xmlns="http://www.w3.org/2000/svg" xmlns:xlink="http://www.w3.org/1999/xlink" x="0px" y="0px"
	 width="100%" viewBox="0 0 1024 1024" enable-background="new 0 0 1024 1024" xml:space="preserve">
<path fill="#C01E27" opacity="1.000000" stroke="none" 
	d="
M671.000000,1025.000000 
	C447.333344,1025.000000 224.166672,1025.000000 1.000000,1025.000000 
	C1.000000,683.666687 1.000000,342.333344 1.000000,1.000000 
	C342.333344,1.000000 683.666687,1.000000 1025.000000,1.000000 
	C1025.000000,342.333344 1025.000000,683.666687 1025.000000,1025.000000 
	C907.166687,1025.000000 789.333313,1025.000000 671.000000,1025.000000 
M718.995178,454.152130 
	C718.335266,448.932190 716.748596,443.618225 717.266296,438.517822 
	C717.825684,433.006714 718.180359,428.812347 711.526855,427.542542 
	C711.113464,427.463654 710.854675,426.574280 710.523987,426.062012 
	C711.030518,426.435791 711.537048,426.809570 712.043640,427.183350 
	C713.028564,425.490204 714.013489,423.797058 715.610840,421.682800 
	C731.125000,415.946259 746.639099,410.209717 762.797485,404.234955 
	C762.797485,435.949707 762.820251,466.597595 762.711792,497.244995 
	C762.707581,498.434479 761.732788,500.019592 760.724426,500.745941 
	C747.600464,510.199646 746.114075,524.545288 757.693176,535.474121 
	C760.992920,538.588501 761.081726,541.007935 759.649963,544.901184 
	C750.673950,569.309692 746.230286,594.677917 744.258118,620.530273 
	C743.747620,627.222290 746.192322,632.443481 751.725464,636.419739 
	C764.291931,645.450378 783.821716,644.530090 795.355164,634.302429 
	C798.838196,631.213806 800.755676,627.628723 800.328308,622.903748 
	C799.743225,616.436096 799.390869,609.941528 798.608337,603.498657 
	C795.908691,581.271729 791.093750,559.561462 781.951050,539.022217 
	C784.057678,537.133179 786.017273,535.578735 787.741211,533.796509 
	C797.016907,524.206604 795.079590,508.170471 783.554260,501.462982 
	C780.632690,499.762634 779.806946,498.064972 779.815674,494.909851 
	C779.899536,464.580963 779.982971,434.250031 779.662170,403.923981 
	C779.608887,398.881989 781.493652,397.057983 785.803772,395.458130 
	C805.158813,388.273682 824.362061,380.681244 843.690735,373.424225 
	C847.043152,372.165527 848.266968,370.375275 848.338013,366.825073 
	C848.410645,363.195282 846.284119,362.519745 843.635376,361.558136 
	C818.284668,352.354736 793.022583,342.905121 767.628723,333.823364 
	C730.003784,320.367310 692.435059,306.730774 654.580994,293.944946 
	C609.325317,278.658997 563.821106,264.104767 518.331726,249.523132 
	C514.670898,248.349640 509.956482,248.399384 506.299591,249.604324 
	C477.840027,258.981873 449.511841,268.759064 421.158478,278.457825 
	C382.729095,291.603302 344.258270,304.630646 305.906860,318.000183 
	C264.713928,332.360291 223.627411,347.026306 182.550278,361.714966 
	C180.759201,362.355438 178.794662,364.309723 178.197952,366.084656 
	C177.216583,369.003845 178.514099,371.628998 181.655182,372.907013 
	C183.196823,373.534241 184.712265,374.230164 186.271088,374.810303 
	C207.489761,382.707092 228.720062,390.572754 249.935684,398.477753 
	C307.971130,420.101990 366.004608,441.731689 424.031067,463.380066 
	C443.365936,470.593475 462.677246,477.869995 482.253113,485.789825 
	C484.329956,486.501495 486.406799,487.213196 488.516235,488.013733 
	C488.516235,488.013733 488.433380,488.059509 488.347137,488.862701 
	C490.429718,490.491699 492.448639,492.211243 494.608459,493.730469 
	C498.788483,496.670807 498.853943,498.274628 495.158783,501.629059 
	C493.500000,503.134827 492.255280,505.096771 490.005737,506.805817 
	C464.665527,497.106354 439.319550,487.421936 413.986755,477.703064 
	C389.896393,468.460846 365.833923,459.145691 341.727448,449.945801 
	C335.566895,447.594727 334.076447,448.332001 332.362152,454.582367 
	C330.557434,461.162567 328.735443,467.770630 327.528320,474.475861 
	C324.199036,492.969513 321.321564,511.544373 318.000427,530.039551 
	C315.927673,541.582458 320.577606,548.094788 330.866547,553.763916 
	C378.449463,579.981628 427.540680,602.252075 480.506134,615.271057 
	C498.653931,619.731750 516.900635,621.893433 535.413757,617.940552 
	C561.365417,612.399414 586.544495,604.339966 611.098633,594.302246 
	C642.113953,581.623230 672.197937,567.089050 701.035828,549.958252 
	C708.463318,545.546082 710.550903,539.761658 709.614624,531.583618 
	C706.538635,504.714355 700.606445,478.440735 694.132019,451.720581 
	C694.754700,450.812500 695.377380,449.904419 696.687805,449.146301 
	C698.695679,450.170227 700.703491,451.194122 702.801941,452.264221 
	C701.720154,454.556610 700.757690,456.265900 700.090027,458.083466 
	C698.904358,461.311768 699.595154,463.814392 703.034546,465.324799 
	C706.362671,466.786346 707.251587,464.582275 708.653870,462.325500 
	C710.510986,459.336395 713.225159,459.325806 715.875610,461.467255 
	C717.291321,462.611115 718.371643,464.689758 719.911194,465.057434 
	C723.636047,465.947144 727.741333,466.952637 731.287781,466.140656 
	C732.991516,465.750610 734.192139,461.447418 734.821289,458.731171 
	C735.191467,457.133179 733.994019,455.172089 733.501648,453.374329 
	C732.155762,454.598846 730.525696,455.627319 729.519714,457.086243 
	C726.939819,460.827789 724.627441,460.962341 721.908020,457.382294 
	C721.170532,456.411438 719.980103,455.784698 718.995178,454.152130 
M307.873596,703.708801 
	C313.660187,703.910095 319.522491,704.796997 325.217377,704.167969 
	C336.573944,702.913635 345.554352,696.392334 354.225250,689.479919 
	C363.859131,681.799866 373.216339,673.705139 383.332794,666.715393 
	C395.463318,658.334045 408.350403,651.352417 424.078278,652.937256 
	C435.112274,654.049072 444.915588,658.523743 454.612823,663.360962 
	C464.438293,668.262146 473.991577,673.746460 483.984894,678.266052 
	C503.752686,687.206299 522.520203,684.521667 540.270020,672.405029 
	C546.724915,667.998718 553.176025,663.449097 560.111206,659.910156 
	C580.043945,649.738953 599.803345,649.761292 618.778809,662.570984 
	C628.021790,668.810547 636.889343,675.626404 646.299622,681.593628 
	C665.194397,693.575256 682.520630,692.776672 700.632690,679.573425 
	C706.282959,675.454407 711.683838,670.985413 717.418396,666.991821 
	C725.929504,661.064514 735.019592,660.222717 744.277588,665.184326 
	C748.965820,667.696960 753.491333,670.536682 757.962646,673.426208 
	C767.805847,679.787354 778.544250,684.227783 790.166931,684.611084 
	C800.206421,684.942139 810.323730,683.368408 820.382263,682.387146 
	C823.397888,682.093018 825.254578,679.958191 824.622864,676.752869 
	C823.964661,673.413818 821.727661,672.065674 818.315002,672.919617 
	C817.347473,673.161682 816.353821,673.297974 815.374268,673.493408 
	C794.999695,677.557983 775.973755,674.624084 758.625488,662.694702 
	C755.612549,660.622925 752.473328,658.687622 749.225647,657.012695 
	C737.191711,650.806274 725.110046,650.778625 713.567932,657.997131 
	C707.382629,661.865356 701.703125,666.566284 695.928528,671.062439 
	C681.626160,682.198242 667.339905,683.336060 651.920105,673.922729 
	C644.827942,669.593140 638.127686,664.613708 631.317017,659.833008 
	C622.302368,653.505249 613.316467,647.167725 602.243164,644.830078 
	C581.014771,640.348511 562.084045,646.001587 544.440979,657.707764 
	C538.067993,661.936218 531.734619,666.346375 524.927429,669.766602 
	C516.883972,673.807983 508.011871,675.410400 499.210876,672.686707 
	C491.141174,670.189392 483.224213,667.036560 475.524628,663.544800 
	C465.226624,658.874817 455.435883,653.038391 445.008240,648.713135 
	C428.687469,641.943481 411.834137,640.663574 395.633240,648.902649 
	C385.751495,653.928101 376.303741,659.963684 367.201599,666.319580 
	C358.754364,672.218262 351.176331,679.344727 342.947510,685.576538 
	C326.551056,697.993896 310.812378,698.273499 294.207123,686.289368 
	C284.628571,679.376404 275.610840,671.689636 266.081940,664.704102 
	C234.172211,641.311584 193.940811,655.781250 177.952957,683.176147 
	C176.188049,686.200195 174.776428,689.577637 178.692139,691.889709 
	C182.803833,694.317505 184.446579,691.186584 186.209381,688.033508 
	C199.353897,664.522217 231.161011,655.301270 254.395248,668.866821 
	C263.240295,674.031128 271.068237,680.957336 279.268677,687.200073 
	C287.885406,693.759766 296.248047,700.710083 307.873596,703.708801 
M541.842407,773.398804 
	C545.319275,772.270203 549.097595,771.674438 552.215454,769.911133 
	C560.897583,765.000916 569.318848,759.627625 577.818970,754.397705 
	C590.775513,746.426025 604.415894,741.829285 620.028503,743.722595 
	C632.255554,745.205322 641.666321,751.793396 651.249451,758.486328 
	C659.705750,764.392273 667.913940,770.820251 676.943604,775.700439 
	C691.322327,783.471558 706.140808,783.171936 720.132385,774.226013 
	C726.003052,770.472351 731.460876,766.022766 736.855042,761.584045 
	C749.121582,751.489929 759.040649,750.593384 772.554016,758.703735 
	C773.839111,759.475098 775.129700,760.248535 776.347168,761.119629 
	C788.850098,770.065735 802.815613,775.466125 818.087219,776.215759 
	C826.790588,776.643005 835.635559,775.285706 844.319397,774.049133 
	C845.988892,773.811462 848.340454,770.415710 848.377747,768.439148 
	C848.441040,765.082275 845.299500,764.648865 842.397583,765.064270 
	C841.409607,765.205688 840.436646,765.449219 839.454346,765.632751 
	C822.671448,768.768555 806.577271,766.754700 791.399109,758.832520 
	C785.798645,755.909363 780.450745,752.496338 775.028992,749.237793 
	C761.759521,741.262817 748.740601,741.844727 736.121643,750.571289 
	C731.200928,753.974182 726.473083,757.693420 721.904175,761.560181 
	C708.213745,773.146362 692.315308,774.652527 677.104614,765.143127 
	C669.491943,760.383789 661.990845,755.344849 654.958923,749.776123 
	C632.016602,731.607422 607.462769,728.187866 581.270691,741.585205 
	C572.115784,746.267883 563.627197,752.270569 554.914795,757.797302 
	C542.512390,765.664856 529.341797,767.264099 515.719666,761.993713 
	C507.825348,758.939514 500.308777,754.888489 492.690369,751.147278 
	C485.217896,747.477844 477.980133,743.298096 470.380280,739.926331 
	C446.958862,729.535400 425.018005,733.673157 404.743530,748.035522 
	C392.388184,756.787903 380.744080,766.538574 368.669403,775.694275 
	C352.855499,787.685181 335.616394,791.391907 317.888306,777.423523 
	C309.124908,770.518555 300.574707,763.333130 291.654053,756.639709 
	C271.444580,741.475891 249.928589,739.394348 227.460709,751.275757 
	C216.633484,757.001282 207.852570,765.050232 202.140930,776.077759 
	C200.634918,778.985413 200.211533,782.106384 203.864746,783.720703 
	C207.025009,785.117126 209.042892,783.433899 210.623550,780.494629 
	C223.655991,756.260864 258.833649,743.392578 284.453033,763.152588 
	C291.572327,768.643555 298.325043,774.636414 305.656494,779.818054 
	C312.551514,784.691101 319.546997,789.885742 327.276276,793.020813 
	C344.776733,800.119080 360.179047,793.775879 374.349548,783.235962 
	C387.575500,773.398621 400.397552,762.975037 414.021149,753.728516 
	C426.223724,745.446411 440.066925,741.299316 454.881073,745.129700 
	C462.709991,747.153992 470.295319,750.438354 477.658142,753.867737 
	C487.007355,758.222290 495.887878,763.578186 505.210052,767.996948 
	C516.522644,773.359070 528.324158,776.651917 541.842407,773.398804 
z"/>
<path fill="#FCFAFA" opacity="1.000000" stroke="none" 
	d="
M481.999329,485.117615 
	C462.677246,477.869995 443.365936,470.593475 424.031067,463.380066 
	C366.004608,441.731689 307.971130,420.101990 249.935684,398.477753 
	C228.720062,390.572754 207.489761,382.707092 186.271088,374.810303 
	C184.712265,374.230164 183.196823,373.534241 181.655182,372.907013 
	C178.514099,371.628998 177.216583,369.003845 178.197952,366.084656 
	C178.794662,364.309723 180.759201,362.355438 182.550278,361.714966 
	C223.627411,347.026306 264.713928,332.360291 305.906860,318.000183 
	C344.258270,304.630646 382.729095,291.603302 421.158478,278.457825 
	C449.511841,268.759064 477.840027,258.981873 506.299591,249.604324 
	C509.956482,248.399384 514.670898,248.349640 518.331726,249.523132 
	C563.821106,264.104767 609.325317,278.658997 654.580994,293.944946 
	C692.435059,306.730774 730.003784,320.367310 767.628723,333.823364 
	C793.022583,342.905121 818.284668,352.354736 843.635376,361.558136 
	C846.284119,362.519745 848.410645,363.195282 848.338013,366.825073 
	C848.266968,370.375275 847.043152,372.165527 843.690735,373.424225 
	C824.362061,380.681244 805.158813,388.273682 785.803772,395.458130 
	C781.493652,397.057983 779.608887,398.881989 779.662170,403.923981 
	C779.982971,434.250031 779.899536,464.580963 779.815674,494.909851 
	C779.806946,498.064972 780.632690,499.762634 783.554260,501.462982 
	C795.079590,508.170471 797.016907,524.206604 787.741211,533.796509 
	C786.017273,535.578735 784.057678,537.133179 781.951050,539.022217 
	C791.093750,559.561462 795.908691,581.271729 798.608337,603.498657 
	C799.390869,609.941528 799.743225,616.436096 800.328308,622.903748 
	C800.755676,627.628723 798.838196,631.213806 795.355164,634.302429 
	C783.821716,644.530090 764.291931,645.450378 751.725464,636.419739 
	C746.192322,632.443481 743.747620,627.222290 744.258118,620.530273 
	C746.230286,594.677917 750.673950,569.309692 759.649963,544.901184 
	C761.081726,541.007935 760.992920,538.588501 757.693176,535.474121 
	C746.114075,524.545288 747.600464,510.199646 760.724426,500.745941 
	C761.732788,500.019592 762.707581,498.434479 762.711792,497.244995 
	C762.820251,466.597595 762.797485,435.949707 762.797485,404.234955 
	C746.639099,410.209717 731.125000,415.946259 714.937622,421.902344 
	C710.173340,423.770325 706.082397,425.418793 701.647339,427.062561 
	C700.948181,427.328461 700.593201,427.599060 700.208130,427.814575 
	C700.177979,427.759460 700.059021,427.799957 699.665710,427.809174 
	C695.060486,429.407745 690.848572,430.997101 686.680054,432.591675 
	C686.723511,432.596863 686.711792,432.510101 686.373413,432.542572 
	C685.019531,433.042358 684.004089,433.509644 682.614014,433.987732 
	C674.300781,436.963043 666.371948,439.954315 658.421814,442.887726 
	C611.478333,460.208557 564.539917,477.543152 517.551270,494.740601 
	C515.402466,495.526978 512.616638,495.645294 510.419373,495.030853 
	C503.019562,492.961578 495.751709,490.420288 488.433380,488.059509 
	C488.433380,488.059509 488.516235,488.013733 488.343018,487.631226 
	C486.112976,486.538361 484.056152,485.828003 481.999329,485.117615 
M466.577606,374.048126 
	C444.170410,387.796600 421.763245,401.545044 398.776978,415.648834 
	C400.326294,416.364929 401.157837,416.835388 402.045319,417.146301 
	C411.943207,420.613800 421.892700,423.940521 431.727844,427.576874 
	C434.690674,428.672272 436.982330,428.459625 439.623199,426.770142 
	C452.530701,418.512634 465.553040,410.435059 478.506927,402.249756 
	C521.167358,375.293488 563.816711,348.319885 606.466675,321.347046 
	C609.916077,319.165558 613.337158,316.939178 617.423462,314.314941 
	C599.844116,308.990021 583.141846,303.883820 566.391418,298.941071 
	C564.965271,298.520264 563.075378,298.837219 561.644958,299.415192 
	C556.554077,301.472046 551.548584,303.745636 546.546753,306.016388 
	C507.886383,323.567566 469.240540,341.150757 430.561066,358.659760 
	C428.713928,359.495911 426.592773,359.726837 423.481842,360.527008 
	C455.029236,334.605469 485.472382,309.591278 516.426575,284.157166 
	C507.577850,281.412201 499.763885,278.518433 491.213440,282.853424 
	C486.809296,285.086243 481.744110,285.987671 477.031372,287.643616 
	C422.694427,306.736603 368.347351,325.801117 314.050140,345.006500 
	C296.365204,351.261841 278.817474,357.905060 260.571381,364.604248 
	C262.027527,365.292725 262.862274,365.777588 263.756195,366.096619 
	C279.278595,371.636780 294.783936,377.227600 310.373505,382.572510 
	C311.958618,383.115997 314.270844,382.596680 315.890717,381.825256 
	C351.513733,364.860352 387.085236,347.787262 422.673492,330.749298 
	C424.209778,330.013824 425.811951,329.416077 427.383423,328.754181 
	C427.432495,328.917816 427.481537,329.081421 427.530579,329.245026 
	C399.334991,350.857605 371.139374,372.470184 341.885529,394.893951 
	C352.098389,398.484833 360.614777,401.679810 369.282745,404.390076 
	C371.533325,405.093811 374.565765,404.993774 376.719208,404.061737 
	C422.556793,384.222687 468.318848,364.209167 514.103699,344.248169 
	C515.513977,343.633331 517.010681,343.216766 518.467102,342.707764 
	C518.595459,343.014496 518.723816,343.321259 518.852173,343.627991 
	C501.638397,353.648254 484.424622,363.668488 466.577606,374.048126 
M514.869202,456.656952 
	C520.074829,458.406738 525.197449,460.509369 530.520020,461.762482 
	C533.323059,462.422394 536.820435,462.410370 539.412231,461.308746 
	C553.043152,455.514679 566.513062,449.336884 579.983398,443.171265 
	C589.703003,438.722473 599.335999,434.084412 610.117859,429.008026 
	C591.335022,423.404907 573.862793,418.192749 555.774292,412.796753 
	C557.288879,411.773315 558.163696,411.031769 559.159851,410.532227 
	C569.277100,405.458191 579.336243,400.255127 589.606018,395.508850 
	C591.877991,394.458862 595.123474,394.330048 597.564758,395.025818 
	C612.448914,399.268066 627.248962,403.810608 642.032776,408.395844 
	C645.721802,409.539978 649.001648,409.506470 652.533875,407.691040 
	C660.081177,403.811981 667.797058,400.260590 675.446533,396.580505 
	C678.510925,395.106323 681.582336,393.646881 685.610657,391.721893 
	C665.811829,385.872559 647.205078,380.375427 627.470947,374.545227 
	C636.187866,369.512726 643.562195,364.986206 651.219421,361.003571 
	C653.429077,359.854279 656.685364,359.434174 659.065613,360.098816 
	C678.460999,365.514832 697.743713,371.333191 717.116028,376.834351 
	C719.518494,377.516602 722.476746,377.763641 724.781616,377.006744 
	C735.370239,373.529419 745.825012,369.642822 756.312683,365.861115 
	C759.716064,364.633881 763.073486,363.278992 767.445984,361.601013 
	C758.467407,358.317993 750.505920,355.493164 742.608459,352.499695 
	C729.548462,347.549500 716.786377,341.618805 703.431885,337.686981 
	C684.617920,332.147766 665.393311,327.990509 646.292175,323.462341 
	C644.675232,323.079041 642.433716,323.971680 640.874084,324.917450 
	C626.638550,333.550323 612.556519,342.436981 598.303345,351.040222 
	C553.693665,377.966675 509.027130,404.798859 464.390839,431.681152 
	C461.935577,433.159821 459.554810,434.762115 456.344910,436.814972 
	C476.339050,443.567535 495.245422,449.952728 514.869202,456.656952 
z"/>
<path fill="#FDFCFC" opacity="1.000000" stroke="none" 
	d="
M693.837891,452.321075 
	C700.606445,478.440735 706.538635,504.714355 709.614624,531.583618 
	C710.550903,539.761658 708.463318,545.546082 701.035828,549.958252 
	C672.197937,567.089050 642.113953,581.623230 611.098633,594.302246 
	C586.544495,604.339966 561.365417,612.399414 535.413757,617.940552 
	C516.900635,621.893433 498.653931,619.731750 480.506134,615.271057 
	C427.540680,602.252075 378.449463,579.981628 330.866547,553.763916 
	C320.577606,548.094788 315.927673,541.582458 318.000427,530.039551 
	C321.321564,511.544373 324.199036,492.969513 327.528320,474.475861 
	C328.735443,467.770630 330.557434,461.162567 332.362152,454.582367 
	C334.076447,448.332001 335.566895,447.594727 341.727448,449.945801 
	C365.833923,459.145691 389.896393,468.460846 413.986755,477.703064 
	C439.319550,487.421936 464.665527,497.106354 490.525208,506.957153 
	C491.044678,507.108459 491.370636,507.203125 491.370636,507.203125 
	C491.370636,507.203125 491.697723,507.112396 491.948547,507.373718 
	C496.085510,509.047791 499.954651,510.509674 503.861847,511.861511 
	C509.423431,513.785706 515.023804,515.017700 520.767273,512.232910 
	C520.849426,512.294250 520.984009,512.139587 521.384766,512.150757 
	C531.879639,508.494629 541.973633,504.827423 552.443359,501.124969 
	C567.401489,495.491943 581.986511,489.900909 596.565735,484.294830 
	C626.031067,472.964691 655.493835,461.627716 684.956177,450.289764 
	C688.380127,448.972137 691.716919,447.971558 693.837891,452.321075 
z"/>
<path fill="#FAF5F5" opacity="1.000000" stroke="none" 
	d="
M307.474457,703.591797 
	C296.248047,700.710083 287.885406,693.759766 279.268677,687.200073 
	C271.068237,680.957336 263.240295,674.031128 254.395248,668.866821 
	C231.161011,655.301270 199.353897,664.522217 186.209381,688.033508 
	C184.446579,691.186584 182.803833,694.317505 178.692139,691.889709 
	C174.776428,689.577637 176.188049,686.200195 177.952957,683.176147 
	C193.940811,655.781250 234.172211,641.311584 266.081940,664.704102 
	C275.610840,671.689636 284.628571,679.376404 294.207123,686.289368 
	C310.812378,698.273499 326.551056,697.993896 342.947510,685.576538 
	C351.176331,679.344727 358.754364,672.218262 367.201599,666.319580 
	C376.303741,659.963684 385.751495,653.928101 395.633240,648.902649 
	C411.834137,640.663574 428.687469,641.943481 445.008240,648.713135 
	C455.435883,653.038391 465.226624,658.874817 475.524628,663.544800 
	C483.224213,667.036560 491.141174,670.189392 499.210876,672.686707 
	C508.011871,675.410400 516.883972,673.807983 524.927429,669.766602 
	C531.734619,666.346375 538.067993,661.936218 544.440979,657.707764 
	C562.084045,646.001587 581.014771,640.348511 602.243164,644.830078 
	C613.316467,647.167725 622.302368,653.505249 631.317017,659.833008 
	C638.127686,664.613708 644.827942,669.593140 651.920105,673.922729 
	C667.339905,683.336060 681.626160,682.198242 695.928528,671.062439 
	C701.703125,666.566284 707.382629,661.865356 713.567932,657.997131 
	C725.110046,650.778625 737.191711,650.806274 749.225647,657.012695 
	C752.473328,658.687622 755.612549,660.622925 758.625488,662.694702 
	C775.973755,674.624084 794.999695,677.557983 815.374268,673.493408 
	C816.353821,673.297974 817.347473,673.161682 818.315002,672.919617 
	C821.727661,672.065674 823.964661,673.413818 824.622864,676.752869 
	C825.254578,679.958191 823.397888,682.093018 820.382263,682.387146 
	C810.323730,683.368408 800.206421,684.942139 790.166931,684.611084 
	C778.544250,684.227783 767.805847,679.787354 757.962646,673.426208 
	C753.491333,670.536682 748.965820,667.696960 744.277588,665.184326 
	C735.019592,660.222717 725.929504,661.064514 717.418396,666.991821 
	C711.683838,670.985413 706.282959,675.454407 700.632690,679.573425 
	C682.520630,692.776672 665.194397,693.575256 646.299622,681.593628 
	C636.889343,675.626404 628.021790,668.810547 618.778809,662.570984 
	C599.803345,649.761292 580.043945,649.738953 560.111206,659.910156 
	C553.176025,663.449097 546.724915,667.998718 540.270020,672.405029 
	C522.520203,684.521667 503.752686,687.206299 483.984894,678.266052 
	C473.991577,673.746460 464.438293,668.262146 454.612823,663.360962 
	C444.915588,658.523743 435.112274,654.049072 424.078278,652.937256 
	C408.350403,651.352417 395.463318,658.334045 383.332794,666.715393 
	C373.216339,673.705139 363.859131,681.799866 354.225250,689.479919 
	C345.554352,696.392334 336.573944,702.913635 325.217377,704.167969 
	C319.522491,704.796997 313.660187,703.910095 307.474457,703.591797 
z"/>
<path fill="#DB7A83" opacity="1.000000" stroke="none" 
	d="
M541.437317,773.511108 
	C528.324158,776.651917 516.522644,773.359070 505.210052,767.996948 
	C495.887878,763.578186 487.007355,758.222290 477.658142,753.867737 
	C470.295319,750.438354 462.709991,747.153992 454.881073,745.129700 
	C440.066925,741.299316 426.223724,745.446411 414.021149,753.728516 
	C400.397552,762.975037 387.575500,773.398621 374.349548,783.235962 
	C360.179047,793.775879 344.776733,800.119080 327.276276,793.020813 
	C319.546997,789.885742 312.551514,784.691101 305.656494,779.818054 
	C298.325043,774.636414 291.572327,768.643555 284.453033,763.152588 
	C258.833649,743.392578 223.655991,756.260864 210.623550,780.494629 
	C209.042892,783.433899 207.025009,785.117126 203.864746,783.720703 
	C200.211533,782.106384 200.634918,778.985413 202.140930,776.077759 
	C207.852570,765.050232 216.633484,757.001282 227.460709,751.275757 
	C249.928589,739.394348 271.444580,741.475891 291.654053,756.639709 
	C300.574707,763.333130 309.124908,770.518555 317.888306,777.423523 
	C335.616394,791.391907 352.855499,787.685181 368.669403,775.694275 
	C380.744080,766.538574 392.388184,756.787903 404.743530,748.035522 
	C425.018005,733.673157 446.958862,729.535400 470.380280,739.926331 
	C477.980133,743.298096 485.217896,747.477844 492.690369,751.147278 
	C500.308777,754.888489 507.825348,758.939514 515.719666,761.993713 
	C529.341797,767.264099 542.512390,765.664856 554.914795,757.797302 
	C563.627197,752.270569 572.115784,746.267883 581.270691,741.585205 
	C607.462769,728.187866 632.016602,731.607422 654.958923,749.776123 
	C661.990845,755.344849 669.491943,760.383789 677.104614,765.143127 
	C692.315308,774.652527 708.213745,773.146362 721.904175,761.560181 
	C726.473083,757.693420 731.200928,753.974182 736.121643,750.571289 
	C748.740601,741.844727 761.759521,741.262817 775.028992,749.237793 
	C780.450745,752.496338 785.798645,755.909363 791.399109,758.832520 
	C806.577271,766.754700 822.671448,768.768555 839.454346,765.632751 
	C840.436646,765.449219 841.409607,765.205688 842.397583,765.064270 
	C845.299500,764.648865 848.441040,765.082275 848.377747,768.439148 
	C848.340454,770.415710 845.988892,773.811462 844.319397,774.049133 
	C835.635559,775.285706 826.790588,776.643005 818.087219,776.215759 
	C802.815613,775.466125 788.850098,770.065735 776.347168,761.119629 
	C775.129700,760.248535 773.839111,759.475098 772.554016,758.703735 
	C759.040649,750.593384 749.121582,751.489929 736.855042,761.584045 
	C731.460876,766.022766 726.003052,770.472351 720.132385,774.226013 
	C706.140808,783.171936 691.322327,783.471558 676.943604,775.700439 
	C667.913940,770.820251 659.705750,764.392273 651.249451,758.486328 
	C641.666321,751.793396 632.255554,745.205322 620.028503,743.722595 
	C604.415894,741.829285 590.775513,746.426025 577.818970,754.397705 
	C569.318848,759.627625 560.897583,765.000916 552.215454,769.911133 
	C549.097595,771.674438 545.319275,772.270203 541.437317,773.511108 
z"/>
<path fill="#C1222C" opacity="1.000000" stroke="none" 
	d="
M520.984009,512.139587 
	C520.984009,512.139587 520.849426,512.294250 520.256104,512.192261 
	C512.270081,512.646057 505.285553,511.027924 498.427002,508.382446 
	C496.332275,507.574432 493.948914,507.514771 491.697723,507.112396 
	C491.697723,507.112396 491.370636,507.203125 491.370636,507.203125 
	C491.370636,507.203125 491.044678,507.108459 490.933655,506.980103 
	C492.255280,505.096771 493.500000,503.134827 495.158783,501.629059 
	C498.853943,498.274628 498.788483,496.670807 494.608459,493.730469 
	C492.448639,492.211243 490.429718,490.491699 488.390259,488.461121 
	C495.751709,490.420288 503.019562,492.961578 510.419373,495.030853 
	C512.616638,495.645294 515.402466,495.526978 517.551270,494.740601 
	C564.539917,477.543152 611.478333,460.208557 658.421814,442.887726 
	C666.371948,439.954315 674.300781,436.963043 682.850037,434.162964 
	C684.544312,433.721680 685.628052,433.115875 686.711792,432.510071 
	C686.711792,432.510101 686.723511,432.596863 687.065063,432.678345 
	C689.006531,432.759827 690.606384,432.759827 692.843201,432.759827 
	C689.908997,436.266754 689.642822,439.199524 692.891785,442.409760 
	C694.513672,444.012390 695.000000,446.764282 696.000000,448.996338 
	C695.377380,449.904419 694.754700,450.812500 693.984985,452.020813 
	C691.716919,447.971558 688.380127,448.972137 684.956177,450.289764 
	C655.493835,461.627716 626.031067,472.964691 596.565735,484.294830 
	C581.986511,489.900909 567.401489,495.491943 552.193298,500.926392 
	C541.796875,504.057739 532.021118,507.337494 522.269592,510.687805 
	C521.737549,510.870514 521.407837,511.642090 520.984009,512.139587 
z"/>
<path fill="#BF222B" opacity="1.000000" stroke="none" 
	d="
M696.343872,449.071320 
	C695.000000,446.764282 694.513672,444.012390 692.891785,442.409760 
	C689.642822,439.199524 689.908997,436.266754 692.843201,432.759827 
	C690.606384,432.759827 689.006531,432.759827 687.021606,432.673157 
	C690.848572,430.997101 695.060486,429.407745 699.491821,428.097168 
	C698.742737,429.301270 697.774292,430.226532 696.595032,431.353271 
	C704.197083,433.004761 704.524414,433.776886 701.867371,440.886017 
	C701.406738,442.118469 701.260315,444.057068 701.918152,445.022614 
	C705.989624,450.998291 709.193909,458.760590 718.997559,455.000000 
	C719.980103,455.784698 721.170532,456.411438 721.908020,457.382294 
	C724.627441,460.962341 726.939819,460.827789 729.519714,457.086243 
	C730.525696,455.627319 732.155762,454.598846 733.501648,453.374329 
	C733.994019,455.172089 735.191467,457.133179 734.821289,458.731171 
	C734.192139,461.447418 732.991516,465.750610 731.287781,466.140656 
	C727.741333,466.952637 723.636047,465.947144 719.911194,465.057434 
	C718.371643,464.689758 717.291321,462.611115 715.875610,461.467255 
	C713.225159,459.325806 710.510986,459.336395 708.653870,462.325500 
	C707.251587,464.582275 706.362671,466.786346 703.034546,465.324799 
	C699.595154,463.814392 698.904358,461.311768 700.090027,458.083466 
	C700.757690,456.265900 701.720154,454.556610 702.801941,452.264221 
	C700.703491,451.194122 698.695679,450.170227 696.343872,449.071320 
z"/>
<path fill="#C1222C" opacity="1.000000" stroke="none" 
	d="
M718.996338,454.576050 
	C709.193909,458.760590 705.989624,450.998291 701.918152,445.022614 
	C701.260315,444.057068 701.406738,442.118469 701.867371,440.886017 
	C704.524414,433.776886 704.197083,433.004761 696.595032,431.353271 
	C697.774292,430.226532 698.742737,429.301270 699.885132,428.087952 
	C700.059021,427.799957 700.177979,427.759460 700.521790,427.726166 
	C701.240845,427.484314 701.616150,427.275757 701.991455,427.067230 
	C706.082397,425.418793 710.173340,423.770325 714.631409,422.112915 
	C714.013489,423.797058 713.028564,425.490204 712.043640,427.183350 
	C711.537048,426.809570 711.030518,426.435791 710.523987,426.062012 
	C710.854675,426.574280 711.113464,427.463654 711.526855,427.542542 
	C718.180359,428.812347 717.825684,433.006714 717.266296,438.517822 
	C716.748596,443.618225 718.335266,448.932190 718.996338,454.576050 
z"/>
<path fill="#C1222C" opacity="1.000000" stroke="none" 
	d="
M482.126221,485.453735 
	C484.056152,485.828003 486.112976,486.538361 488.326721,487.586792 
	C486.406799,487.213196 484.329956,486.501495 482.126221,485.453735 
z"/>
<path fill="#BF2029" opacity="1.000000" stroke="none" 
	d="
M466.894226,373.868439 
	C484.424622,363.668488 501.638397,353.648254 518.852173,343.627991 
	C518.723816,343.321259 518.595459,343.014496 518.467102,342.707764 
	C517.010681,343.216766 515.513977,343.633331 514.103699,344.248169 
	C468.318848,364.209167 422.556793,384.222687 376.719208,404.061737 
	C374.565765,404.993774 371.533325,405.093811 369.282745,404.390076 
	C360.614777,401.679810 352.098389,398.484833 341.885529,394.893951 
	C371.139374,372.470184 399.334991,350.857605 427.530579,329.245026 
	C427.481537,329.081421 427.432495,328.917816 427.383423,328.754181 
	C425.811951,329.416077 424.209778,330.013824 422.673492,330.749298 
	C387.085236,347.787262 351.513733,364.860352 315.890717,381.825256 
	C314.270844,382.596680 311.958618,383.115997 310.373505,382.572510 
	C294.783936,377.227600 279.278595,371.636780 263.756195,366.096619 
	C262.862274,365.777588 262.027527,365.292725 260.571381,364.604248 
	C278.817474,357.905060 296.365204,351.261841 314.050140,345.006500 
	C368.347351,325.801117 422.694427,306.736603 477.031372,287.643616 
	C481.744110,285.987671 486.809296,285.086243 491.213440,282.853424 
	C499.763885,278.518433 507.577850,281.412201 516.426575,284.157166 
	C485.472382,309.591278 455.029236,334.605469 423.481842,360.527008 
	C426.592773,359.726837 428.713928,359.495911 430.561066,358.659760 
	C469.240540,341.150757 507.886383,323.567566 546.546753,306.016388 
	C551.548584,303.745636 556.554077,301.472046 561.644958,299.415192 
	C563.075378,298.837219 564.965271,298.520264 566.391418,298.941071 
	C583.141846,303.883820 599.844116,308.990021 617.423462,314.314941 
	C613.337158,316.939178 609.916077,319.165558 606.466675,321.347046 
	C563.816711,348.319885 521.167358,375.293488 478.506927,402.249756 
	C465.553040,410.435059 452.530701,418.512634 439.623199,426.770142 
	C436.982330,428.459625 434.690674,428.672272 431.727844,427.576874 
	C421.892700,423.940521 411.943207,420.613800 402.045319,417.146301 
	C401.157837,416.835388 400.326294,416.364929 398.776978,415.648834 
	C421.763245,401.545044 444.170410,387.796600 466.894226,373.868439 
z"/>
<path fill="#BF202A" opacity="1.000000" stroke="none" 
	d="
M514.510498,456.497437 
	C495.245422,449.952728 476.339050,443.567535 456.344910,436.814972 
	C459.554810,434.762115 461.935577,433.159821 464.390839,431.681152 
	C509.027130,404.798859 553.693665,377.966675 598.303345,351.040222 
	C612.556519,342.436981 626.638550,333.550323 640.874084,324.917450 
	C642.433716,323.971680 644.675232,323.079041 646.292175,323.462341 
	C665.393311,327.990509 684.617920,332.147766 703.431885,337.686981 
	C716.786377,341.618805 729.548462,347.549500 742.608459,352.499695 
	C750.505920,355.493164 758.467407,358.317993 767.445984,361.601013 
	C763.073486,363.278992 759.716064,364.633881 756.312683,365.861115 
	C745.825012,369.642822 735.370239,373.529419 724.781616,377.006744 
	C722.476746,377.763641 719.518494,377.516602 717.116028,376.834351 
	C697.743713,371.333191 678.460999,365.514832 659.065613,360.098816 
	C656.685364,359.434174 653.429077,359.854279 651.219421,361.003571 
	C643.562195,364.986206 636.187866,369.512726 627.470947,374.545227 
	C647.205078,380.375427 665.811829,385.872559 685.610657,391.721893 
	C681.582336,393.646881 678.510925,395.106323 675.446533,396.580505 
	C667.797058,400.260590 660.081177,403.811981 652.533875,407.691040 
	C649.001648,409.506470 645.721802,409.539978 642.032776,408.395844 
	C627.248962,403.810608 612.448914,399.268066 597.564758,395.025818 
	C595.123474,394.330048 591.877991,394.458862 589.606018,395.508850 
	C579.336243,400.255127 569.277100,405.458191 559.159851,410.532227 
	C558.163696,411.031769 557.288879,411.773315 555.774292,412.796753 
	C573.862793,418.192749 591.335022,423.404907 610.117859,429.008026 
	C599.335999,434.084412 589.703003,438.722473 579.983398,443.171265 
	C566.513062,449.336884 553.043152,455.514679 539.412231,461.308746 
	C536.820435,462.410370 533.323059,462.422394 530.520020,461.762482 
	C525.197449,460.509369 520.074829,458.406738 514.510498,456.497437 
z"/>
<path fill="#BF222B" opacity="1.000000" stroke="none" 
	d="
M686.373413,432.542542 
	C685.628052,433.115875 684.544312,433.721680 683.224609,434.152222 
	C684.004089,433.509644 685.019531,433.042358 686.373413,432.542542 
z"/>
<path fill="#BF222B" opacity="1.000000" stroke="none" 
	d="
M701.647339,427.062561 
	C701.616150,427.275757 701.240845,427.484314 700.551941,427.781250 
	C700.593201,427.599060 700.948181,427.328461 701.647339,427.062561 
z"/>
<path fill="#BE2731" opacity="1.000000" stroke="none" 
	d="
M521.384766,512.150757 
	C521.407837,511.642090 521.737549,510.870514 522.269592,510.687805 
	C532.021118,507.337494 541.796875,504.057739 551.817627,500.961609 
	C541.973633,504.827423 531.879639,508.494629 521.384766,512.150757 
z"/>
<path fill="#BE2731" opacity="1.000000" stroke="none" 
	d="
M491.948547,507.373718 
	C493.948914,507.514771 496.332275,507.574432 498.427002,508.382446 
	C505.285553,511.027924 512.270081,512.646057 520.173950,512.130981 
	C515.023804,515.017700 509.423431,513.785706 503.861847,511.861511 
	C499.954651,510.509674 496.085510,509.047791 491.948547,507.373718 
z"/>
</svg>